<svg width="120" height="120" viewBox="0 0 120 120" fill="none" xmlns="http://www.w3.org/2000/svg">
<rect width="120" height="120" rx="16" fill="url(#paint0_linear)" fill-opacity="0.08"/>
<path d="M63 30C63 32.2091 61.2091 34 59 34C56.7909 34 55 32.2091 55 30C55 27.7909 56.7909 26 59 26C61.2091 26 63 27.7909 63 30Z" fill="#CBD5E1"/>
<path d="M53 50L59 36L65 50" stroke="#E2E8F0" stroke-width="4" stroke-linecap="round" stroke-linejoin="round"/>
<path d="M59 50V74" stroke="#E2E8F0" stroke-width="6" stroke-linecap="round"/>
<path d="M59 58L50 70" stroke="#E2E8F0" stroke-width="5" stroke-linecap="round"/>
<path d="M59 58L68 70" stroke="#E2E8F0" stroke-width="5" stroke-linecap="round"/>
<path d="M59 74L52 94" stroke="#E2E8F0" stroke-width="5" stroke-linecap="round"/>
<path d="M59 74L70 94" stroke="#E2E8F0" stroke-width="5" stroke-linecap="round"/>
<defs>
<linearGradient id="paint0_linear" x1="0" y1="0" x2="120" y2="120" gradientUnits="userSpaceOnUse">
<stop stop-color="#6366F1"/>
<stop offset="1" stop-color="#A855F7"/>
</linearGradient>
</defs>
</svg>
